<svg width="231" height="231" viewBox="0 0 231 231" fill="none" xmlns="http://www.w3.org/2000/svg">
<g clip-path="url(#clip0_17_32822)">
<path d="M0 115.5C0 51.7111 51.7111 0 115.5 0C179.289 0 231 51.7111 231 115.5C231 179.289 179.289 231 115.5 231C51.7111 231 0 179.289 0 115.5Z" fill="white"/>
<g filter="url(#filter0_d_17_32822)">
<path d="M130.101 192.814C132.512 190.403 134.103 187.172 134.103 183.218C134.103 155.541 134.103 100.379 134.103 100.379L119.637 100.379L119.637 66.6258L129.281 56.9821L119.637 28.051L100.35 28.051L90.7061 56.9821L100.35 66.6258V100.379H85.8842C85.8842 100.379 85.8842 155.541 85.8842 183.218C87.2826 190.596 91.9598 196.816 99.4819 196.816L120.505 196.816C124.459 196.816 127.69 195.225 130.101 192.814ZM119.637 182.35L100.35 182.35L100.35 114.844L119.637 114.844L119.637 182.35Z" fill="#6595F6"/>
<path d="M135.453 192.814C137.864 190.403 139.455 187.172 139.455 183.218C139.455 155.541 139.455 100.379 139.455 100.379L124.99 100.379L124.99 66.6258L134.634 56.9821L124.99 28.051L105.702 28.051L96.0587 56.9821L105.702 66.6258V100.379H91.2368C91.2368 100.379 91.2368 155.541 91.2368 183.218C92.6352 190.596 97.3124 196.816 104.834 196.816L125.858 196.816C129.812 196.816 133.042 195.225 135.453 192.814ZM124.99 182.35L105.702 182.35L105.702 114.844L124.99 114.844L124.99 182.35Z" fill="#FF0000"/>
<path d="M141.218 192.814C143.628 190.403 145.22 187.172 145.22 183.218C145.22 155.541 145.22 100.379 145.22 100.379L130.754 100.379L130.754 66.6258L140.398 56.9821L130.754 28.051L111.467 28.051L101.823 56.9821L111.467 66.6258V100.379H97.0012C97.0012 100.379 97.0012 155.541 97.0012 183.218C98.3995 190.596 103.077 196.816 110.599 196.816L131.622 196.816C135.576 196.816 138.807 195.225 141.218 192.814ZM130.754 182.35L111.467 182.35L111.467 114.844L130.754 114.844L130.754 182.35Z" fill="#176CCF"/>
</g>
</g>
<defs>
<filter id="filter0_d_17_32822" x="35.8842" y="-15.9492" width="147.335" height="256.766" filterUnits="userSpaceOnUse" color-interpolation-filters="sRGB">
<feFlood flood-opacity="0" result="BackgroundImageFix"/>
<feColorMatrix in="SourceAlpha" type="matrix" values="0 0 0 0 0 0 0 0 0 0 0 0 0 0 0 0 0 0 127 0" result="hardAlpha"/>
<feOffset dx="-6"/>
<feGaussianBlur stdDeviation="22"/>
<feComposite in2="hardAlpha" operator="out"/>
<feColorMatrix type="matrix" values="0 0 0 0 0.482353 0 0 0 0 0.380392 0 0 0 0 1 0 0 0 0.2 0"/>
<feBlend mode="multiply" in2="BackgroundImageFix" result="effect1_dropShadow_17_32822"/>
<feBlend mode="normal" in="SourceGraphic" in2="effect1_dropShadow_17_32822" result="shape"/>
</filter>
<clipPath id="clip0_17_32822">
<path d="M0 115.5C0 51.7111 51.7111 0 115.5 0C179.289 0 231 51.7111 231 115.5C231 179.289 179.289 231 115.5 231C51.7111 231 0 179.289 0 115.5Z" fill="white"/>
</clipPath>
</defs>
</svg>
