<svg width="33" height="33" viewBox="0 0 33 33" fill="none" xmlns="http://www.w3.org/2000/svg">
<path d="M25.5003 0.898438C24.7087 0.898438 23.917 1.1676 23.2678 1.81677C18.7237 6.36094 9.66699 15.4176 9.66699 15.4176L12.042 17.7926L6.50033 23.3343H3.33366L0.166992 29.6676L3.33366 32.8343L9.66699 29.6676V26.5009L15.2087 20.9593L17.5837 23.3343C17.5837 23.3343 26.6403 14.2776 31.1845 9.73344C32.1662 8.2926 32.4195 6.50344 31.1845 5.26844L27.7328 1.81677C27.0837 1.1676 26.292 0.898438 25.5003 0.898438ZM25.5003 4.33427L28.667 7.50094L17.5837 18.5843L14.417 15.4176L25.5003 4.33427Z" fill="white"/>
</svg>